<?xml version="1.0" encoding="UTF-8"?>
<svg version="1.1" xmlns="http://www.w3.org/2000/svg" width="96" height="96">
<path d="M0 0 C31.68 0 63.36 0 96 0 C96 31.68 96 63.36 96 96 C64.32 96 32.64 96 0 96 C0 64.32 0 32.64 0 0 Z " fill="#DF863F" transform="translate(0,0)"/>
<path d="M0 0 C5.94 0 11.88 0 18 0 C18 31.68 18 63.36 18 96 C12.06 96 6.12 96 0 96 C0.66 92.7 1.32 89.4 2 86 C3.98 86.66 5.96 87.32 8 88 C8 89.65 8 91.3 8 93 C8.66 93 9.32 93 10 93 C10.33 91.02 10.66 89.04 11 87 C13.97 86.505 13.97 86.505 17 86 C17 85.34 17 84.68 17 84 C15.35 84 13.7 84 12 84 C11.01 82.02 10.02 80.04 9 78 C8.34 79.98 7.68 81.96 7 84 C5.35 84 3.7 84 2 84 C1.9845388 82.46570847 1.9845388 82.46570847 1.96876526 80.90042114 C1.87115053 71.27662499 1.76842793 61.65289521 1.66066074 52.02920723 C1.60541753 47.08118064 1.55199528 42.13314815 1.50268555 37.18505859 C1.45506263 32.41287858 1.40272058 27.64077184 1.34705925 22.86867905 C1.32662629 21.04497977 1.30791478 19.2212604 1.29092598 17.39752579 C1.26690278 14.8497412 1.23684544 12.30209578 1.20532227 9.75439453 C1.1995668 8.99482452 1.19381134 8.23525452 1.18788147 7.45266724 C1.20110112 3.59880592 1.20110112 3.59880592 0 0 Z " fill="#FEFEFE" transform="translate(78,0)"/>
<path d="M0 0 C6 1 6 1 7 2 C7.04063832 3.66617115 7.042721 5.33388095 7 7 C7.66 7 8.32 7 9 7 C8.95875 6.21625 8.9175 5.4325 8.875 4.625 C9 2 9 2 11 0 C11.99 0 12.98 0 14 0 C14.01030746 0.98527679 14.02061493 1.97055359 14.03123474 2.98568726 C14.12885353 12.25629802 14.23157653 21.52683992 14.33933926 30.79733849 C14.39458021 35.56376174 14.44800209 40.33019112 14.49731445 45.09667969 C14.54494071 49.6937976 14.59728289 54.29083953 14.65294075 58.88786697 C14.67337219 60.64457948 14.69208395 62.40131282 14.70907402 64.15806198 C14.73310058 66.61245025 14.76315745 69.06669426 14.79467773 71.52099609 C14.8004332 72.25251389 14.80618866 72.98403168 14.81211853 73.73771667 C14.81190363 77.49440229 14.81190363 77.49440229 16 81 C10.72 81 5.44 81 0 81 C0 54.27 0 27.54 0 0 Z " fill="#FEFEFE" transform="translate(0,15)"/>
<path d="M0 0 C17.82 0 35.64 0 54 0 C54 4.62 54 9.24 54 14 C52.73816895 14.02505615 51.47633789 14.0501123 50.17626953 14.07592773 C45.50591431 14.16992106 40.83571063 14.27016131 36.16552734 14.37231445 C34.14212584 14.41569395 32.11868701 14.45736678 30.09521484 14.49731445 C27.19096616 14.55494408 24.28690589 14.6186594 21.3828125 14.68359375 C20.47443634 14.70030624 19.56606018 14.71701874 18.63015747 14.73423767 C17.78943695 14.75418289 16.94871643 14.77412811 16.08251953 14.79467773 C15.34083527 14.81022202 14.599151 14.8257663 13.83499146 14.84178162 C11.90325896 14.89473496 11.90325896 14.89473496 10 16 C10 15.34 10 14.68 10 14 C9.46375 14.185625 8.9275 14.37125 8.375 14.5625 C6 15 6 15 0 14 C0 9.38 0 4.76 0 0 Z " fill="#FEFEFE" transform="translate(20,13)"/>
<path d="M0 0 C3.875 0.875 3.875 0.875 5 2 C5.09506052 4.55589888 5.12556761 7.08467972 5.11352539 9.64086914 C5.11367142 10.44080795 5.11381744 11.24074677 5.1139679 12.06492615 C5.11326855 14.72169665 5.10547518 17.37839793 5.09765625 20.03515625 C5.09579215 21.87218691 5.09436821 23.70921806 5.09336853 25.54624939 C5.08954275 30.39109662 5.07971196 35.23591408 5.06866455 40.08074951 C5.05845172 45.02062578 5.05387119 49.96050685 5.04882812 54.90039062 C5.03808974 64.60027353 5.0210126 74.30013429 5 84 C6.65 83.67 8.3 83.34 10 83 C10.66 81.02 11.32 79.04 12 77 C13 79 14 81 15 83 C17.52733235 83.65555119 17.52733235 83.65555119 20 84 C20 84.66 20 85.32 20 86 C18.02 86.33 16.04 86.66 14 87 C13.67 88.98 13.34 90.96 13 93 C12.34 93 11.68 93 11 93 C10.938125 92.21625 10.87625 91.4325 10.8125 90.625 C10.4103125 89.325625 10.4103125 89.325625 10 88 C7.52363988 86.62533375 7.52363988 86.62533375 5 86 C5.04125 87.27875 5.0825 88.5575 5.125 89.875 C5.1953125 92.0546875 5.1953125 92.0546875 5 94 C3 96 3 96 0.41246033 96.24723816 C-0.68150558 96.24581314 -1.7754715 96.24438812 -2.90258789 96.24291992 C-4.75944969 96.24753487 -4.75944969 96.24753487 -6.65382385 96.25224304 C-8.0101032 96.24534583 -9.36638071 96.2380789 -10.72265625 96.23046875 C-12.10745704 96.22927703 -13.49225865 96.22882377 -14.87705994 96.2290802 C-17.77982642 96.22751518 -20.68246961 96.21922339 -23.58520508 96.20581055 C-27.31353857 96.18880479 -31.04173668 96.18499664 -34.77010441 96.18575573 C-37.62932131 96.18548437 -40.48850837 96.18000887 -43.34771538 96.17275429 C-44.72289237 96.16956343 -46.09807275 96.16759924 -47.47325325 96.16686058 C-49.39111668 96.16470235 -51.3089676 96.15517294 -53.22680664 96.14526367 C-54.31997696 96.14145187 -55.41314728 96.13764008 -56.53944397 96.13371277 C-59 96 -59 96 -60 95 C-60.09502416 92.50507612 -60.12557566 90.03793986 -60.11352539 87.54272461 C-60.11367142 86.76229294 -60.11381744 85.98186127 -60.1139679 85.17778015 C-60.11326858 82.5859402 -60.10547536 79.99417122 -60.09765625 77.40234375 C-60.09579213 75.6101536 -60.0943682 73.81796294 -60.09336853 72.02577209 C-60.08954284 67.29929203 -60.07971212 62.57284248 -60.06866455 57.84637451 C-60.05845153 53.0271445 -60.05387115 48.20790958 -60.04882812 43.38867188 C-60.03808989 33.92576781 -60.02101286 24.46288644 -60 15 C-59.67 15 -59.34 15 -59 15 C-58.67 40.74 -58.34 66.48 -58 93 C-38.2 93 -18.4 93 2 93 C2 63.3 2 33.6 2 3 C1.34 2.67 0.68 2.34 0 2 C0 1.34 0 0.68 0 0 Z " fill="#352619" transform="translate(75,0)"/>
<path d="M0 0 C22.77 0 45.54 0 69 0 C69 0.66 69 1.32 69 2 C51.84 2.33 34.68 2.66 17 3 C16.13663363 13.3140503 16.13663363 13.3140503 15.79467773 23.61425781 C15.77982834 24.7726844 15.77982834 24.7726844 15.76467896 25.95451355 C15.73362056 28.45402179 15.70853216 30.9535489 15.68359375 33.453125 C15.66297584 35.20717809 15.64197828 36.96122676 15.62062073 38.715271 C15.56589875 43.29193496 15.51627341 47.86863997 15.46777344 52.44537354 C15.41718994 57.13158747 15.36169788 61.81774312 15.30664062 66.50390625 C15.19967083 75.66922084 15.09809475 84.83458642 15 94 C14.67 94 14.34 94 14 94 C14 67.93 14 41.86 14 15 C12.02 15.99 12.02 15.99 10 17 C9.18828772 19.55519921 9.18828772 19.55519921 9 22 C8.34 22 7.68 22 7 22 C6.67 20.35 6.34 18.7 6 17 C4.02 16.34 2.04 15.68 0 15 C0 10.05 0 5.1 0 0 Z " fill="#3D3C3B" transform="translate(0,0)"/>
<path d="M0 0 C3.96 0 7.92 0 12 0 C12 9.57 12 19.14 12 29 C8.04 29 4.08 29 0 29 C0 19.43 0 9.86 0 0 Z " fill="#FDFDFD" transform="translate(61,57)"/>
<path d="M0 0 C19.14 0 38.28 0 58 0 C58 5.94 58 11.88 58 18 C43.48 18 28.96 18 14 18 C14 17.34 14 16.68 14 16 C27.86 16 41.72 16 56 16 C56 11.38 56 6.76 56 2 C38.18 2 20.36 2 2 2 C2 6.62 2 11.24 2 16 C3.98 16 5.96 16 8 16 C8 16.66 8 17.32 8 18 C5.36 18 2.72 18 0 18 C0 12.06 0 6.12 0 0 Z " fill="#272320" transform="translate(18,11)"/>
<path d="M0 0 C5.28 0 10.56 0 16 0 C15.67 0.66 15.34 1.32 15 2 C14.7724985 3.87056791 14.59037189 5.74685958 14.4375 7.625 C14.35371094 8.62789062 14.26992187 9.63078125 14.18359375 10.6640625 C14.12300781 11.43492188 14.06242188 12.20578125 14 13 C10.125 12.125 10.125 12.125 9 11 C8.95936168 9.33382885 8.957279 7.66611905 9 6 C8.34 6 7.68 6 7 6 C7.061875 7.175625 7.061875 7.175625 7.125 8.375 C7 11 7 11 5 13 C3.35 13 1.7 13 0 13 C0 8.71 0 4.42 0 0 Z " fill="#FBFBFB" transform="translate(0,0)"/>
<path d="M0 0 C0.33 0 0.66 0 1 0 C1.01030746 0.97496933 1.02061493 1.94993866 1.03123474 2.95445251 C1.12879945 12.12236314 1.23151702 21.29020333 1.33933926 30.45799923 C1.39461048 35.17176359 1.44803705 39.8855341 1.49731445 44.59936523 C1.54489624 49.14460904 1.59723654 53.68977496 1.65294075 58.23492622 C1.67339243 59.97292719 1.69210076 61.71094954 1.70907402 63.44898796 C1.73305604 65.87484377 1.7631186 68.30055101 1.79467773 70.72631836 C1.8004332 71.45208069 1.80618866 72.17784302 1.81211853 72.92559814 C1.5763987 76.24741016 1.5763987 76.24741016 3 79 C4.8096774 79.12330088 6.62407837 79.17790183 8.43774414 79.20532227 C9.59887222 79.22526749 10.76000031 79.24521271 11.95631409 79.26576233 C13.219832 79.28247482 14.48334991 79.29918732 15.78515625 79.31640625 C17.71408974 79.3475779 17.71408974 79.3475779 19.68199158 79.37937927 C23.10635904 79.43466176 26.5307875 79.48404361 29.95526123 79.53222656 C33.44744314 79.58239665 36.9395361 79.6381061 40.43164062 79.69335938 C47.28768333 79.8010164 54.14380633 79.90244449 61 80 C61 80.33 61 80.66 61 81 C53.19424805 81.02312792 45.38850405 81.04091738 37.58272648 81.05181217 C33.9585404 81.05704002 30.3343777 81.06413587 26.71020508 81.07543945 C23.21540025 81.08627184 19.72061796 81.09227758 16.22579765 81.09487724 C14.23760611 81.09763551 12.24942369 81.10544688 10.26124573 81.11329651 C9.06007614 81.11337204 7.85890656 81.11344757 6.62133789 81.11352539 C5.02582848 81.11685631 5.02582848 81.11685631 3.39808655 81.12025452 C1 81 1 81 0 80 C-0.09502416 77.50507612 -0.12557566 75.03793986 -0.11352539 72.54272461 C-0.11367142 71.76229294 -0.11381744 70.98186127 -0.1139679 70.17778015 C-0.11326858 67.5859402 -0.10547536 64.99417122 -0.09765625 62.40234375 C-0.09579213 60.6101536 -0.0943682 58.81796294 -0.09336853 57.02577209 C-0.08954284 52.29929203 -0.07971212 47.57284248 -0.06866455 42.84637451 C-0.05845153 38.0271445 -0.05387115 33.20790958 -0.04882812 28.38867188 C-0.03808989 18.92576781 -0.02101286 9.46288644 0 0 Z " fill="#120B06" transform="translate(15,15)"/>
<path d="M0 0 C1.98 0.66 3.96 1.32 6 2 C6 3.65 6 5.3 6 7 C6.66 7 7.32 7 8 7 C8.33 5.02 8.66 3.04 9 1 C12.465 0.505 12.465 0.505 16 0 C16 3.3 16 6.6 16 10 C10.06 10 4.12 10 -2 10 C-1.34 6.7 -0.68 3.4 0 0 Z " fill="#F6F6F6" transform="translate(80,86)"/>
<path d="M0 0 C3.96 0 7.92 0 12 0 C12 3.63 12 7.26 12 11 C8.04 11 4.08 11 0 11 C0 7.37 0 3.74 0 0 Z " fill="#FBFBFB" transform="translate(41,75)"/>
<path d="M0 0 C3.96 0 7.92 0 12 0 C12 3.63 12 7.26 12 11 C8.04 11 4.08 11 0 11 C0 7.37 0 3.74 0 0 Z " fill="#FBFBFB" transform="translate(21,75)"/>
<path d="M0 0 C3.96 0 7.92 0 12 0 C12 3.63 12 7.26 12 11 C8.04 11 4.08 11 0 11 C0 7.37 0 3.74 0 0 Z " fill="#FBFBFB" transform="translate(41,57)"/>
<path d="M0 0 C3.96 0 7.92 0 12 0 C12 3.63 12 7.26 12 11 C8.04 11 4.08 11 0 11 C0 7.37 0 3.74 0 0 Z " fill="#FBFBFB" transform="translate(21,57)"/>
<path d="M0 0 C3.96 0 7.92 0 12 0 C12 3.63 12 7.26 12 11 C8.04 11 4.08 11 0 11 C0 7.37 0 3.74 0 0 Z " fill="#FBFBFB" transform="translate(61,40)"/>
<path d="M0 0 C3.96 0 7.92 0 12 0 C12 3.63 12 7.26 12 11 C8.04 11 4.08 11 0 11 C0 7.37 0 3.74 0 0 Z " fill="#FEFEFE" transform="translate(41,40)"/>
<path d="M0 0 C3.96 0 7.92 0 12 0 C12 3.63 12 7.26 12 11 C8.04 11 4.08 11 0 11 C0 7.37 0 3.74 0 0 Z " fill="#FEFEFE" transform="translate(21,40)"/>
<path d="M0 0 C17.49 0 34.98 0 53 0 C53 0.66 53 1.32 53 2 C35.51 2.33 18.02 2.66 0 3 C0 2.01 0 1.02 0 0 Z " fill="#2D1B0D" transform="translate(16,0)"/>
<path d="M0 0 C1.27875 0.00257812 2.5575 0.00515625 3.875 0.0078125 C5.15375 0.00523438 6.4325 0.00265625 7.75 0 C10.875 0.1328125 10.875 0.1328125 11.875 1.1328125 C12.00014928 3.10900697 12.0507276 5.09019423 12.0625 7.0703125 C12.07667969 8.15183594 12.09085938 9.23335937 12.10546875 10.34765625 C11.875 13.1328125 11.875 13.1328125 9.875 15.1328125 C7.125 15.3984375 7.125 15.3984375 3.875 15.3828125 C2.26625 15.39054687 2.26625 15.39054687 0.625 15.3984375 C-2.125 15.1328125 -2.125 15.1328125 -4.125 13.1328125 C-4.35546875 10.34765625 -4.35546875 10.34765625 -4.3125 7.0703125 C-4.30605469 5.98621094 -4.29960938 4.90210937 -4.29296875 3.78515625 C-4.05039396 -0.04526886 -3.90512486 0.16596781 0 0 Z M-2.125 2.1328125 C-2.125 5.7628125 -2.125 9.3928125 -2.125 13.1328125 C1.835 13.1328125 5.795 13.1328125 9.875 13.1328125 C9.875 9.5028125 9.875 5.8728125 9.875 2.1328125 C5.915 2.1328125 1.955 2.1328125 -2.125 2.1328125 Z " fill="#291B11" transform="translate(43.125,72.8671875)"/>
<path d="M0 0 C1.27875 0.00257812 2.5575 0.00515625 3.875 0.0078125 C5.15375 0.00523438 6.4325 0.00265625 7.75 0 C10.875 0.1328125 10.875 0.1328125 11.875 1.1328125 C12.00014928 3.10900697 12.0507276 5.09019423 12.0625 7.0703125 C12.07667969 8.15183594 12.09085938 9.23335937 12.10546875 10.34765625 C11.875 13.1328125 11.875 13.1328125 9.875 15.1328125 C7.125 15.3984375 7.125 15.3984375 3.875 15.3828125 C2.26625 15.39054687 2.26625 15.39054687 0.625 15.3984375 C-2.125 15.1328125 -2.125 15.1328125 -4.125 13.1328125 C-4.35546875 10.34765625 -4.35546875 10.34765625 -4.3125 7.0703125 C-4.30605469 5.98621094 -4.29960937 4.90210937 -4.29296875 3.78515625 C-4.05039396 -0.04526886 -3.90512486 0.16596781 0 0 Z M-2.125 2.1328125 C-2.125 5.7628125 -2.125 9.3928125 -2.125 13.1328125 C1.835 13.1328125 5.795 13.1328125 9.875 13.1328125 C9.875 9.5028125 9.875 5.8728125 9.875 2.1328125 C5.915 2.1328125 1.955 2.1328125 -2.125 2.1328125 Z " fill="#291B11" transform="translate(23.125,72.8671875)"/>
<path d="M0 0 C1.27875 0.00257812 2.5575 0.00515625 3.875 0.0078125 C5.15375 0.00523438 6.4325 0.00265625 7.75 0 C10.875 0.1328125 10.875 0.1328125 11.875 1.1328125 C12.00014928 3.10900697 12.0507276 5.09019423 12.0625 7.0703125 C12.07667969 8.15183594 12.09085938 9.23335937 12.10546875 10.34765625 C11.875 13.1328125 11.875 13.1328125 9.875 15.1328125 C7.125 15.3984375 7.125 15.3984375 3.875 15.3828125 C2.26625 15.39054687 2.26625 15.39054687 0.625 15.3984375 C-2.125 15.1328125 -2.125 15.1328125 -4.125 13.1328125 C-4.35546875 10.34765625 -4.35546875 10.34765625 -4.3125 7.0703125 C-4.30605469 5.98621094 -4.29960938 4.90210938 -4.29296875 3.78515625 C-4.05039396 -0.04526886 -3.90512486 0.16596781 0 0 Z M-2.125 2.1328125 C-2.125 5.7628125 -2.125 9.3928125 -2.125 13.1328125 C1.835 13.1328125 5.795 13.1328125 9.875 13.1328125 C9.875 9.5028125 9.875 5.8728125 9.875 2.1328125 C5.915 2.1328125 1.955 2.1328125 -2.125 2.1328125 Z " fill="#281B10" transform="translate(43.125,54.8671875)"/>
<path d="M0 0 C1.27875 0.00257812 2.5575 0.00515625 3.875 0.0078125 C5.15375 0.00523438 6.4325 0.00265625 7.75 0 C10.875 0.1328125 10.875 0.1328125 11.875 1.1328125 C12.00014928 3.10900697 12.0507276 5.09019423 12.0625 7.0703125 C12.07667969 8.15183594 12.09085938 9.23335937 12.10546875 10.34765625 C11.875 13.1328125 11.875 13.1328125 9.875 15.1328125 C7.125 15.3984375 7.125 15.3984375 3.875 15.3828125 C2.26625 15.39054687 2.26625 15.39054687 0.625 15.3984375 C-2.125 15.1328125 -2.125 15.1328125 -4.125 13.1328125 C-4.35546875 10.34765625 -4.35546875 10.34765625 -4.3125 7.0703125 C-4.30605469 5.98621094 -4.29960937 4.90210938 -4.29296875 3.78515625 C-4.05039396 -0.04526886 -3.90512486 0.16596781 0 0 Z M-2.125 2.1328125 C-2.125 5.7628125 -2.125 9.3928125 -2.125 13.1328125 C1.835 13.1328125 5.795 13.1328125 9.875 13.1328125 C9.875 9.5028125 9.875 5.8728125 9.875 2.1328125 C5.915 2.1328125 1.955 2.1328125 -2.125 2.1328125 Z " fill="#281B11" transform="translate(23.125,54.8671875)"/>
<path d="M0 0 C1.27875 0.00257812 2.5575 0.00515625 3.875 0.0078125 C5.15375 0.00523438 6.4325 0.00265625 7.75 0 C10.875 0.1328125 10.875 0.1328125 11.875 1.1328125 C12.00014928 3.10900697 12.0507276 5.09019423 12.0625 7.0703125 C12.07667969 8.15183594 12.09085938 9.23335937 12.10546875 10.34765625 C11.875 13.1328125 11.875 13.1328125 9.875 15.1328125 C7.125 15.3984375 7.125 15.3984375 3.875 15.3828125 C2.26625 15.39054687 2.26625 15.39054687 0.625 15.3984375 C-2.125 15.1328125 -2.125 15.1328125 -4.125 13.1328125 C-4.35546875 10.34765625 -4.35546875 10.34765625 -4.3125 7.0703125 C-4.30605469 5.98621094 -4.29960938 4.90210938 -4.29296875 3.78515625 C-4.05039396 -0.04526886 -3.90512486 0.16596781 0 0 Z M-2.125 2.1328125 C-2.125 5.7628125 -2.125 9.3928125 -2.125 13.1328125 C1.835 13.1328125 5.795 13.1328125 9.875 13.1328125 C9.875 9.5028125 9.875 5.8728125 9.875 2.1328125 C5.915 2.1328125 1.955 2.1328125 -2.125 2.1328125 Z " fill="#23180F" transform="translate(43.125,37.8671875)"/>
<path d="M0 0 C1.27875 0.00257812 2.5575 0.00515625 3.875 0.0078125 C5.15375 0.00523438 6.4325 0.00265625 7.75 0 C10.875 0.1328125 10.875 0.1328125 11.875 1.1328125 C12.00014928 3.10900697 12.0507276 5.09019423 12.0625 7.0703125 C12.07667969 8.15183594 12.09085938 9.23335937 12.10546875 10.34765625 C11.875 13.1328125 11.875 13.1328125 9.875 15.1328125 C7.125 15.3984375 7.125 15.3984375 3.875 15.3828125 C2.26625 15.39054687 2.26625 15.39054687 0.625 15.3984375 C-2.125 15.1328125 -2.125 15.1328125 -4.125 13.1328125 C-4.35546875 10.34765625 -4.35546875 10.34765625 -4.3125 7.0703125 C-4.30605469 5.98621094 -4.29960937 4.90210938 -4.29296875 3.78515625 C-4.05039396 -0.04526886 -3.90512486 0.16596781 0 0 Z M-2.125 2.1328125 C-2.125 5.7628125 -2.125 9.3928125 -2.125 13.1328125 C1.835 13.1328125 5.795 13.1328125 9.875 13.1328125 C9.875 9.5028125 9.875 5.8728125 9.875 2.1328125 C5.915 2.1328125 1.955 2.1328125 -2.125 2.1328125 Z " fill="#23180F" transform="translate(23.125,37.8671875)"/>
<path d="M0 0 C1.27875 0.00257812 2.5575 0.00515625 3.875 0.0078125 C5.15375 0.00523438 6.4325 0.00265625 7.75 0 C10.875 0.1328125 10.875 0.1328125 11.875 1.1328125 C11.97373816 3.13080822 12.00471799 5.13238408 12 7.1328125 C12.00386719 8.7725 12.00386719 8.7725 12.0078125 10.4453125 C11.875 13.1328125 11.875 13.1328125 10.875 14.1328125 C8.54339945 14.23190552 6.20870058 14.26251754 3.875 14.2578125 C2.59625 14.26039062 1.3175 14.26296875 0 14.265625 C-3.125 14.1328125 -3.125 14.1328125 -4.125 13.1328125 C-4.22373816 11.13481678 -4.25471799 9.13324092 -4.25 7.1328125 C-4.25257812 6.0396875 -4.25515625 4.9465625 -4.2578125 3.8203125 C-4.06699306 -0.04097501 -3.92546692 0.16683234 0 0 Z M-2.125 1.1328125 C-2.125 4.7628125 -2.125 8.3928125 -2.125 12.1328125 C1.835 12.1328125 5.795 12.1328125 9.875 12.1328125 C9.875 8.5028125 9.875 4.8728125 9.875 1.1328125 C5.915 1.1328125 1.955 1.1328125 -2.125 1.1328125 Z " fill="#150F09" transform="translate(63.125,38.8671875)"/>
<path d="M0 0 C1 2 2 4 3 6 C5.52733235 6.65555119 5.52733235 6.65555119 8 7 C8 7.66 8 8.32 8 9 C6.02 9.33 4.04 9.66 2 10 C1.67 11.98 1.34 13.96 1 16 C0.34 16 -0.32 16 -1 16 C-1.125 13.125 -1.125 13.125 -1 10 C-0.34 9.34 0.32 8.68 1 8 C0.01 8 -0.98 8 -2 8 C-1.125 1.125 -1.125 1.125 0 0 Z " fill="#1F1F1F" transform="translate(87,77)"/>
<path d="M0 0 C0.66 0 1.32 0 2 0 C2 1.98 2 3.96 2 6 C1.34 6 0.68 6 0 6 C0 6.99 0 7.98 0 9 C0.66 9.33 1.32 9.66 2 10 C2 11.98 2 13.96 2 16 C1.34 16 0.68 16 0 16 C-0.33 14.35 -0.66 12.7 -1 11 C-2.98 10.34 -4.96 9.68 -7 9 C-7 8.34 -7 7.68 -7 7 C-5.02 6.34 -3.04 5.68 -1 5 C-0.67 3.35 -0.34 1.7 0 0 Z " fill="#1A1A1A" transform="translate(7,6)"/>
<path d="M0 0 C2.19050021 0.09017996 4.378466 0.24666208 6.5625 0.4375 C7.76003906 0.53933594 8.95757812 0.64117187 10.19140625 0.74609375 C11.11824219 0.82988281 12.04507813 0.91367188 13 1 C13 1.33 13 1.66 13 2 C9.04 2 5.08 2 1 2 C1 5.3 1 8.6 1 12 C0.01 12.495 0.01 12.495 -1 13 C-1.02686553 11.02090602 -1.04633375 9.04171029 -1.0625 7.0625 C-1.07410156 5.96035156 -1.08570313 4.85820313 -1.09765625 3.72265625 C-1 1 -1 1 0 0 Z " fill="#453C34" transform="translate(40,73)"/>
<path d="M0 0 C2.19050021 0.09017996 4.378466 0.24666208 6.5625 0.4375 C7.76003906 0.53933594 8.95757812 0.64117187 10.19140625 0.74609375 C11.11824219 0.82988281 12.04507813 0.91367188 13 1 C13 1.33 13 1.66 13 2 C9.04 2 5.08 2 1 2 C1 5.3 1 8.6 1 12 C0.01 12.495 0.01 12.495 -1 13 C-1.02686553 11.02090602 -1.04633375 9.04171029 -1.0625 7.0625 C-1.07410156 5.96035156 -1.08570312 4.85820313 -1.09765625 3.72265625 C-1 1 -1 1 0 0 Z " fill="#453B33" transform="translate(20,73)"/>
<path d="M0 0 C2.19050021 0.09017996 4.378466 0.24666208 6.5625 0.4375 C7.76003906 0.53933594 8.95757812 0.64117187 10.19140625 0.74609375 C11.11824219 0.82988281 12.04507813 0.91367187 13 1 C13 1.33 13 1.66 13 2 C9.04 2 5.08 2 1 2 C1 5.3 1 8.6 1 12 C0.01 12.495 0.01 12.495 -1 13 C-1.02686553 11.02090602 -1.04633375 9.04171029 -1.0625 7.0625 C-1.07410156 5.96035156 -1.08570313 4.85820313 -1.09765625 3.72265625 C-1 1 -1 1 0 0 Z " fill="#453C34" transform="translate(40,55)"/>
<path d="M0 0 C2.19050021 0.09017996 4.378466 0.24666208 6.5625 0.4375 C7.76003906 0.53933594 8.95757812 0.64117187 10.19140625 0.74609375 C11.11824219 0.82988281 12.04507813 0.91367187 13 1 C13 1.33 13 1.66 13 2 C9.04 2 5.08 2 1 2 C1 5.3 1 8.6 1 12 C0.01 12.495 0.01 12.495 -1 13 C-1.02686553 11.02090602 -1.04633375 9.04171029 -1.0625 7.0625 C-1.07410156 5.96035156 -1.08570312 4.85820313 -1.09765625 3.72265625 C-1 1 -1 1 0 0 Z " fill="#453B33" transform="translate(20,55)"/>
<path d="M0 0 C2.19050021 0.09017996 4.378466 0.24666208 6.5625 0.4375 C7.76003906 0.53933594 8.95757812 0.64117187 10.19140625 0.74609375 C11.11824219 0.82988281 12.04507813 0.91367187 13 1 C13 1.33 13 1.66 13 2 C9.04 2 5.08 2 1 2 C1 5.3 1 8.6 1 12 C0.01 12.495 0.01 12.495 -1 13 C-1.02686553 11.02090602 -1.04633375 9.04171029 -1.0625 7.0625 C-1.07410156 5.96035156 -1.08570313 4.85820313 -1.09765625 3.72265625 C-1 1 -1 1 0 0 Z " fill="#3B312A" transform="translate(40,38)"/>
<path d="M0 0 C2.19050021 0.09017996 4.378466 0.24666208 6.5625 0.4375 C7.76003906 0.53933594 8.95757812 0.64117187 10.19140625 0.74609375 C11.11824219 0.82988281 12.04507813 0.91367187 13 1 C13 1.33 13 1.66 13 2 C9.04 2 5.08 2 1 2 C1 5.3 1 8.6 1 12 C0.01 12.495 0.01 12.495 -1 13 C-1.02686553 11.02090602 -1.04633375 9.04171029 -1.0625 7.0625 C-1.07410156 5.96035156 -1.08570312 4.85820313 -1.09765625 3.72265625 C-1 1 -1 1 0 0 Z " fill="#3B3129" transform="translate(20,38)"/>
<path d="M0 0 C0.33 0 0.66 0 1 0 C1 3.96 1 7.92 1 12 C-1.83556587 13.41778293 -3.9908706 12.86257622 -7.125 12.5625 C-8.76855469 12.40974609 -8.76855469 12.40974609 -10.4453125 12.25390625 C-11.28835937 12.17011719 -12.13140625 12.08632813 -13 12 C-13 11.67 -13 11.34 -13 11 C-9.04 11 -5.08 11 -1 11 C-1.020625 9.370625 -1.04125 7.74125 -1.0625 6.0625 C-1.08386068 4.37500659 -1.07205511 2.68608966 -1 1 C-0.67 0.67 -0.34 0.34 0 0 Z " fill="#46403A" transform="translate(74,40)"/>
<path d="M0 0 C0.66 0.99 1.32 1.98 2 3 C0.02 3.99 0.02 3.99 -2 5 C-2.99 4.34 -3.98 3.68 -5 3 C-3.35 2.01 -1.7 1.02 0 0 Z " fill="#7B7B7B" transform="translate(87,83)"/>
</svg>
